<?xml version="1.0" standalone="no"?>
<!DOCTYPE svg PUBLIC "-//W3C//DTD SVG 20010904//EN"
 "http://www.w3.org/TR/2001/REC-SVG-20010904/DTD/svg10.dtd">
<svg version="1.0" xmlns="http://www.w3.org/2000/svg"
 width="512.000000pt" height="512.000000pt" viewBox="0 0 512.000000 512.000000"
 preserveAspectRatio="xMidYMid meet">

<g transform="translate(0.000000,512.000000) scale(0.100000,-0.100000)"
fill="#000000" stroke="none">
<path d="M2479 5097 c-27 -15 -52 -38 -66 -63 -22 -38 -23 -46 -23 -361 0
-178 -3 -323 -6 -323 -4 0 -101 53 -218 119 -289 162 -270 154 -336 149 -69
-5 -115 -35 -141 -92 -24 -53 -24 -107 1 -156 25 -49 8 -38 384 -251 l311
-176 3 -537 c2 -443 0 -537 -11 -534 -7 2 -219 122 -471 268 l-459 264 5 366
c3 210 1 380 -5 400 -39 150 -240 174 -317 38 -19 -34 -21 -58 -27 -317 -3
-155 -7 -281 -9 -281 -1 0 -125 71 -275 157 -255 146 -277 157 -324 157 -149
0 -229 -173 -130 -282 21 -23 129 -92 294 -187 144 -82 261 -152 261 -155 -1
-3 -105 -66 -232 -140 -248 -145 -283 -175 -294 -246 -12 -81 26 -151 101
-185 84 -39 89 -37 489 199 252 149 292 170 310 160 12 -6 174 -99 361 -207
187 -108 386 -223 443 -256 56 -32 102 -61 102 -65 0 -8 -910 -533 -924 -533
-12 0 -76 36 -424 241 -243 144 -274 155 -345 128 -112 -43 -151 -178 -78
-267 18 -21 113 -83 260 -169 127 -74 230 -137 231 -140 0 -3 -28 -21 -63 -41
-485 -278 -519 -302 -532 -373 -22 -113 57 -209 170 -209 49 0 67 9 324 157
150 86 274 156 275 156 2 0 6 -126 9 -281 6 -277 7 -282 32 -324 76 -130 272
-102 312 45 6 21 8 186 5 400 l-5 365 458 265 c252 146 464 266 471 268 11 3
13 -88 11 -534 l-2 -537 -140 -79 c-77 -44 -216 -123 -310 -175 -213 -120
-221 -126 -246 -176 -41 -79 -4 -193 74 -230 45 -22 119 -22 160 -1 18 9 127
70 243 135 117 66 214 119 218 119 3 0 6 -145 6 -322 0 -316 1 -324 23 -362
26 -47 93 -86 147 -86 54 0 121 39 147 86 22 38 23 46 23 362 0 177 3 322 6
322 4 0 101 -53 218 -119 275 -155 268 -151 321 -151 95 0 163 63 173 158 5
57 -23 121 -65 149 -15 10 -166 97 -337 194 l-311 176 -2 537 c-2 442 0 537
10 534 8 -2 220 -122 472 -268 l458 -264 -5 -366 c-5 -405 -2 -438 52 -483 88
-74 215 -53 270 45 19 34 21 58 27 317 3 155 7 281 9 281 1 0 119 -67 261
-149 143 -82 278 -154 301 -161 114 -30 225 72 209 192 -11 82 -38 103 -361
288 -130 74 -236 137 -236 140 0 3 104 66 231 140 147 86 242 148 260 169 50
61 48 161 -5 220 -27 30 -92 61 -131 61 -44 0 -81 -20 -390 -202 -154 -91
-290 -170 -301 -176 -18 -10 -44 2 -190 87 -93 53 -277 160 -409 236 -321 185
-345 199 -345 205 0 3 24 19 53 36 91 54 831 481 853 492 19 10 57 -10 310
-160 399 -236 405 -238 489 -199 75 34 113 104 101 185 -11 71 -46 101 -295
246 -127 74 -231 137 -231 140 0 3 117 73 261 155 165 95 273 164 294 187 99
109 19 282 -130 282 -47 0 -69 -11 -324 -157 -150 -86 -274 -157 -275 -157 -2
0 -6 126 -9 281 -6 259 -8 283 -27 317 -77 136 -278 112 -317 -38 -6 -20 -8
-190 -5 -400 l5 -366 -458 -264 c-252 -146 -464 -266 -471 -268 -11 -3 -13 89
-11 534 l2 537 310 176 c378 214 360 202 385 251 25 49 25 103 1 156 -26 57
-72 87 -141 92 -66 5 -47 13 -336 -149 -117 -66 -214 -119 -218 -119 -3 0 -6
145 -6 323 0 315 -1 323 -23 361 -26 47 -93 86 -147 86 -20 0 -57 -10 -81 -23z"/>
</g>
</svg>
